<?xml version="1.0" standalone="no"?>
<!DOCTYPE svg PUBLIC "-//W3C//DTD SVG 20010904//EN"
 "http://www.w3.org/TR/2001/REC-SVG-20010904/DTD/svg10.dtd">
<svg version="1.0" xmlns="http://www.w3.org/2000/svg"
 width="180.000000pt" height="180.000000pt" viewBox="0 0 180.000000 180.000000"
 preserveAspectRatio="xMidYMid meet">
<metadata>
Created by potrace 1.14, written by Peter Selinger 2001-2017
</metadata>
<g transform="translate(0.000000,180.000000) scale(0.100000,-0.100000)"
fill="#000000" stroke="none">
<path d="M801 1539 c-172 -29 -302 -114 -363 -237 -32 -66 -38 -221 -11 -301
26 -80 95 -150 191 -197 42 -21 86 -41 97 -45 67 -24 114 -38 143 -44 l32 -7
0 62 c0 42 4 62 14 66 27 11 180 -52 227 -93 9 -7 24 -31 34 -53 33 -73 -6
-154 -93 -191 -69 -30 -210 -26 -315 7 -105 35 -177 72 -261 137 -52 39 -55
41 -71 29 -13 -9 -105 -197 -105 -215 0 -7 15 -24 33 -38 215 -161 488 -231
727 -185 137 27 209 61 284 134 121 119 156 278 96 437 -29 74 -105 152 -191
196 -65 32 -281 106 -341 116 l-38 6 0 -66 c0 -36 -4 -68 -9 -71 -16 -11 -134
70 -153 105 -40 75 -14 145 69 186 49 23 61 25 150 20 109 -5 208 -33 332 -94
l74 -36 18 24 c10 13 19 28 19 32 0 4 16 42 35 83 19 41 35 80 35 88 0 23
-119 80 -260 124 -93 29 -287 39 -399 21z"/>
</g>
</svg>
