<?xml version="1.0" encoding="utf-8"?>
<!-- Generator: Adobe Illustrator 27.6.1, SVG Export Plug-In . SVG Version: 6.00 Build 0)  -->
<svg version="1.1" id="Layer_1" xmlns="http://www.w3.org/2000/svg" xmlns:xlink="http://www.w3.org/1999/xlink" x="0px" y="0px"
	 viewBox="0 0 109 109" style="enable-background:new 0 0 109 109;" xml:space="preserve">
<g>
	<g>
		<path d="M53.1,94.9c0-0.3-0.2-0.6-0.6-0.6H38.7c-0.3,0-0.6,0.2-0.6,0.6s0.2,0.6,0.6,0.6h13.9C52.9,95.5,53.1,95.2,53.1,94.9z"/>
	</g>
	<g>
		<path d="M57.7,94.9c0-0.3-0.2-0.6-0.6-0.6h-2.3c-0.3,0-0.6,0.2-0.6,0.6s0.2,0.6,0.6,0.6h2.3C57.5,95.5,57.7,95.2,57.7,94.9z"/>
	</g>
	<g>
		<path d="M59.1,95.5h1.5c0.3,0,0.6-0.2,0.6-0.6s-0.2-0.6-0.6-0.6h-1.5c-0.3,0-0.6,0.2-0.6,0.6S58.8,95.5,59.1,95.5z"/>
	</g>
	<g>
		<path d="M70.3,97.2H56.4c-0.3,0-0.6,0.2-0.6,0.6s0.2,0.6,0.6,0.6h13.9c0.3,0,0.6-0.2,0.6-0.6S70.6,97.2,70.3,97.2z"/>
	</g>
	<g>
		<path d="M54.2,97.2h-2.3c-0.3,0-0.6,0.2-0.6,0.6s0.2,0.6,0.6,0.6h2.3c0.3,0,0.6-0.2,0.6-0.6S54.5,97.2,54.2,97.2z"/>
	</g>
	<g>
		<path d="M49.9,97.2h-1.5c-0.3,0-0.6,0.2-0.6,0.6s0.2,0.6,0.6,0.6h1.5c0.3,0,0.6-0.2,0.6-0.6S50.2,97.2,49.9,97.2z"/>
	</g>
	<g>
		<path d="M45.1,55.2c2.2,0,3.9-1.7,3.9-3.9c0-1.9-1.4-3.6-3.3-3.8c0.2-2.4,2.3-4.3,4.8-4.3h4.3c3.3,0,6-2.7,6-6v-2.8l1.9,1.9
			c0.1,0.1,0.2,0.2,0.4,0.2c0.1,0,0.3-0.1,0.4-0.2c0.2-0.2,0.2-0.6,0-0.8l-2.8-2.8c-0.1-0.1-0.1-0.1-0.2-0.1c-0.1-0.1-0.3-0.1-0.4,0
			c-0.1,0-0.1,0.1-0.2,0.1L57,35.5c-0.2,0.2-0.2,0.6,0,0.8c0.2,0.2,0.6,0.2,0.8,0l1.9-1.9v2.8c0,2.7-2.2,4.8-4.8,4.8h-4.3
			c-3.1,0-5.7,2.4-6,5.4c-1.9,0.2-3.3,1.9-3.3,3.8C41.1,53.5,42.9,55.2,45.1,55.2z M45.1,48.6c1.5,0,2.7,1.2,2.7,2.7
			c0,1.5-1.2,2.8-2.7,2.8s-2.8-1.2-2.8-2.8C42.3,49.9,43.5,48.6,45.1,48.6z"/>
	</g>
	<g>
		<path d="M63,47.2c-0.2-0.2-0.6-0.2-0.8,0l-2.7,2.7L57,47.2c-0.2-0.2-0.6-0.2-0.8,0c-0.2,0.2-0.2,0.6,0,0.8l2.7,2.7l-2.7,2.7
			c-0.2,0.2-0.2,0.6,0,0.8c0.1,0.1,0.2,0.2,0.4,0.2c0.1,0,0.3-0.1,0.4-0.2l2.7-2.7l2.7,2.7c0.1,0.1,0.2,0.2,0.4,0.2
			c0.1,0,0.3-0.1,0.4-0.2c0.2-0.2,0.2-0.6,0-0.8l-2.7-2.7l2.7-2.7C63.3,47.8,63.3,47.4,63,47.2z"/>
	</g>
	<g>
		<path d="M42.2,37.2c0.1,0.1,0.2,0.2,0.4,0.2c0.1,0,0.3-0.1,0.4-0.2l2.7-2.7l2.6,2.7c0.1,0.1,0.2,0.2,0.4,0.2
			c0.1,0,0.3-0.1,0.4-0.2c0.2-0.2,0.2-0.6,0-0.8l-2.7-2.7l2.7-2.7c0.2-0.2,0.2-0.6,0-0.8c-0.2-0.2-0.6-0.2-0.8,0L45.7,33L43,30.3
			c-0.2-0.2-0.6-0.2-0.8,0c-0.2,0.2-0.2,0.6,0,0.8l2.7,2.7l-2.7,2.7C42,36.7,42,37,42.2,37.2z"/>
	</g>
	<g>
		<path d="M95,80.8c3.9-6.9,6-14.8,6-22.8c0-7.9-2-15.7-5.8-22.5v-6.3l0,0V26l0,0v-1.7c0-2.9-2.4-5.3-5.3-5.3
			c-2.4,0-4.4,1.5-5.1,3.7c-2.4-2-5-3.9-7.8-5.4v-0.8c0-2.1-1.7-3.8-3.8-3.8h-8.3c-0.9-0.2-1.7-0.4-2.6-0.5
			c-0.1-0.2-0.2-0.4-0.3-0.7c-1.2-4.2-5.1-7.1-9.4-7.1s-8.2,2.9-9.4,7c-0.1,0.5-0.4,0.9-0.7,1.2H32.1c-2.1,0-3.8,1.7-3.8,3.8v3.1
			C15.5,28.4,8,42.7,8,58c0,25.6,20.9,46.5,46.5,46.5c12.1,0,23.6-4.6,32.3-13.1h3.9c3.3,0,6.1-2.5,6.3-5.7c0.1-1.7-0.5-3.3-1.6-4.6
			C95.2,81,95.1,80.9,95,80.8z M94,35.7v24.6h-2V29.7h2V35.7L94,35.7L94,35.7z M94,28.6h-2.6h-5.7v-2H94V28.6z M90.9,29.7v30.6h-5.2
			V29.7H90.9z M91.4,61.5h2.2l-3.8,7.2l-3.8-7.2H91.4z M89.9,20.2c2.3,0,4.2,1.9,4.2,4.2v1.1h-8.3v-1.1
			C85.7,22.1,87.5,20.2,89.9,20.2z M84.6,24.1c0,0.1,0,0.2,0,0.2V26l0,0v3.1v31.7c0,0.1,0.1,0.2,0.1,0.2l4.8,9
			c0.1,0.2,0.3,0.3,0.5,0.3s0.4-0.1,0.5-0.3l4.8-9c0-0.1,0.1-0.2,0.1-0.2l0,0V38c3,6.2,4.7,13.1,4.7,20c0,7.7-2,15.4-5.7,22.1
			c-0.9-0.6-2-0.9-3.2-0.9H75.5c-2.7,0-4.9,1.6-5.9,3.8H57.9l-3-1.5c-0.1-0.1-0.3-0.1-0.4-0.1L49,83c-0.2,0.1-0.4,0.3-0.4,0.6V87
			c0,0.2,0.2,0.5,0.4,0.6l5.4,1.6c0.1,0,0.1,0,0.2,0c0.1,0,0.2,0,0.2-0.1l3-1.5h11.7c0.3,0.7,0.7,1.4,1.2,1.9
			c0.2,0.3,0.6,0.6,0.9,0.8H35.1l1.2-3c0.6-0.2,1.1-0.4,1.7-0.7l3.7,1.6c0.2,0.1,0.5,0.1,0.6-0.1l3.5-3.5c0.2-0.2,0.2-0.4,0.1-0.6
			l-1.6-3.7c0.2-0.6,0.5-1.1,0.7-1.7l2.7-1h25.5c2.1,0,3.8-1.7,3.8-3.8v-55C79.7,20.2,82.2,22,84.6,24.1z M69.3,86.5H57.8
			c-0.1,0-0.2,0-0.2,0.1l-3,1.5l-4.8-1.4v-2.5l4.8-1.4l3,1.5c0.1,0.1,0.2,0.1,0.2,0.1h11.5c-0.1,0.2-0.1,0.5-0.1,0.7l0,0
			C69.1,85.4,69.1,85.9,69.3,86.5z M20.2,79.9c-0.3-0.7-0.6-1.3-0.8-2c-0.1-0.2-0.2-0.3-0.3-0.4l-3.6-1.5v-4.3l3.6-1.5
			c0.2-0.1,0.3-0.2,0.3-0.4c0.2-0.7,0.5-1.3,0.8-2c0.1-0.1,0.1-0.3,0-0.5L18.7,64l3-3l3.6,1.5c0.2,0.1,0.3,0.1,0.5,0
			c0.7-0.3,1.3-0.6,2-0.8c0.2-0.1,0.3-0.2,0.4-0.3l0.1-0.2v5.9c-2.7,1.3-4.3,4-4.3,7c0,4.3,3.5,7.8,7.8,7.8c3,0,5.7-1.7,7-4.3h5.9
			l-0.2,0.1C44.1,77.7,44,77.8,44,78c-0.6,1.9-1,2-0.9,2.5l1.5,3.6l-3,3l-3.6-1.5c-0.2-0.1-0.3-0.1-0.5,0c-0.6,0.3-1.3,0.6-2,0.8
			c-0.2,0.1-0.3,0.2-0.4,0.3l-1.4,3.6h-4.3l-1.5-3.6c-0.1-0.2-0.2-0.3-0.4-0.3c-0.7-0.2-1.4-0.5-2-0.8c-0.1-0.1-0.3-0.1-0.5,0
			l-3.6,1.5l-3-3l1.5-3.6C20.3,80.2,20.3,80.1,20.2,79.9z M32.1,77.5h5.3c-1.2,2-3.3,3.2-5.7,3.2c-3.7,0-6.7-3-6.7-6.7
			c0-2.3,1.2-4.5,3.2-5.7v5.3C28.2,75.7,29.9,77.5,32.1,77.5z M52.6,5.7c3.8,0,7.2,2.5,8.3,6.2c0.1,0.4,0.3,0.8,0.6,1.2l0,0
			c0.1,0.2,0.3,0.4,0.5,0.6c0,0,0,0,0.1,0.1c0.2,0.2,0.6,0.5,0.9,0.6c1.9,0.9,3.1,2.7,3.3,4.7H38.9c0.2-2,1.5-3.8,3.3-4.7
			c0.3-0.1,0.6-0.4,0.9-0.6c0,0,0,0,0.1,0c0.5-0.5,0.9-1.1,1-1.8C45.4,8.2,48.8,5.7,52.6,5.7z M38.3,20.2H67c0.3,0,0.6-0.2,0.6-0.6
			c0-0.4,0-0.7-0.1-1h3.7v53H34.1v-53h3.7c-0.1,0.4-0.1,0.7-0.1,1C37.7,19.9,38,20.2,38.3,20.2z M32.1,13.9h8.7
			c-1.3,0.9-2.2,2.1-2.7,3.6h-4.6c-0.3,0-0.6,0.2-0.6,0.6v54.2c0,0.3,0.2,0.6,0.6,0.6h38.3c0.3,0,0.6-0.2,0.6-0.6V18
			c0-0.3-0.2-0.6-0.6-0.6h-4.6c-0.5-1.4-1.4-2.7-2.7-3.6h8.7c1.5,0,2.7,1.2,2.7,2.7v57c0,1.5-1.2,2.7-2.7,2.7c-6,0-35.2,0-41.1,0
			c-1.5,0-2.7-1.2-2.7-2.7c0-12.1,0-44.9,0-57C29.4,15.1,30.6,13.9,32.1,13.9z M28.2,21.1V58l-1,2.7c-0.6,0.2-1.1,0.4-1.7,0.7
			l-3.7-1.6c-0.2-0.1-0.5-0.1-0.6,0.1l-3.5,3.5c-0.2,0.2-0.2,0.4-0.1,0.6l1.6,3.7c-0.2,0.6-0.5,1.1-0.7,1.7l-3.8,1.5
			c-0.2,0.1-0.4,0.3-0.4,0.6v5c0,0.2,0.1,0.4,0.4,0.6l3.8,1.5c0.2,0.6,0.4,1.1,0.7,1.7l-1.6,3.7c0,0.1-0.1,0.1-0.1,0.2
			c-5.2-7.3-8.3-16.3-8.3-26C9.2,43.3,16.3,29.6,28.2,21.1z M18.3,85.2l2.9,2.9c0.2,0.2,0.4,0.2,0.6,0.1l3.7-1.6
			c0.6,0.2,1.1,0.5,1.7,0.7l1.2,3h-5.6C21.1,88.7,19.6,87,18.3,85.2z M23.9,91.4h51.4h9.9c-8.4,7.7-19.2,11.9-30.6,11.9
			C42.7,103.3,32,98.8,23.9,91.4z M95.8,85.7c-0.2,2.6-2.4,4.6-5.1,4.6c-3.8,0-11.6,0-15.4,0c-1.4,0-2.7-0.6-3.6-1.5
			c-0.9-1-1.4-2.3-1.4-3.7c0.2-2.6,2.4-4.6,5.1-4.6h15.4c1.4,0,2.7,0.6,3.6,1.5C95.4,83,95.9,84.3,95.8,85.7z"/>
	</g>
	<g>
		<path d="M91.5,87H74.6c-0.3,0-0.6,0.2-0.6,0.6c0,0.3,0.2,0.6,0.6,0.6h16.9c0.3,0,0.6-0.2,0.6-0.6C92,87.3,91.8,87,91.5,87z"/>
	</g>
	<g>
		<path d="M91.5,82.5H74.6c-0.3,0-0.6,0.2-0.6,0.6s0.2,0.6,0.6,0.6h16.9c0.3,0,0.6-0.2,0.6-0.6C92,82.7,91.8,82.5,91.5,82.5z"/>
	</g>
	<g>
		<path d="M52.6,12.9c1.5,0,2.7-1.2,2.7-2.7s-1.2-2.7-2.7-2.7s-2.7,1.2-2.7,2.7C49.9,11.7,51.1,12.9,52.6,12.9z M52.6,8.6
			c0.9,0,1.6,0.7,1.6,1.6c0,0.9-0.7,1.6-1.6,1.6c-0.9,0-1.6-0.7-1.6-1.6C51,9.3,51.7,8.6,52.6,8.6z"/>
	</g>
</g>
</svg>
