<?xml version="1.0" encoding="utf-8"?>
<!-- Generator: Adobe Illustrator 27.6.1, SVG Export Plug-In . SVG Version: 6.00 Build 0)  -->
<svg version="1.1" id="Layer_1" xmlns="http://www.w3.org/2000/svg" xmlns:xlink="http://www.w3.org/1999/xlink" x="0px" y="0px"
	 viewBox="0 0 109 109" style="enable-background:new 0 0 109 109;" xml:space="preserve">
<g>
	<g>
		<path d="M87.8,24.8v-5.1c0-0.3-0.2-0.6-0.6-0.6H81c-7.8-5.3-16.9-8.2-26.4-8.2c-17.2,0-32.9,9.4-41.1,24.4H7.2
			c-0.3,0-0.6,0.2-0.6,0.6v5.7c0,0.3,0.2,0.6,0.6,0.6h3.3c-1.8,5-2.6,10.2-2.6,15.4c0,3.1,0.3,6.2,0.9,9.2l-1.2,0.3
			c-0.2,0.1-0.5,0.3-0.5,0.6v6.1c0,0.3,0.2,0.5,0.5,0.6l3.7,0.9c0.5,1.2,1.1,2.5,1.7,3.7l-2.2,3.5c-0.1,0.2-0.1,0.5,0.1,0.7l4.3,4.3
			c0.2,0.2,0.5,0.2,0.7,0.1l1.8-1.1c8.9,11.5,22.3,18,36.8,18c25.8,0,46.7-21.1,46.7-46.7C101.3,45.3,96.5,33.6,87.8,24.8z
			 M86.7,20.2c0,6,0,40.9,0,50H55.5v-50H86.7z M35.8,90.1h-4.4l0.9-3.9c0.6-0.2,1.2-0.4,1.8-0.6v0.6C34,87.8,34.7,89.2,35.8,90.1z
			 M34,74.7c-1.3,2.2-3.8,3.6-6.4,3.6c-4.2,0-7.5-3.4-7.5-7.5c0-4.2,3.4-7.5,7.5-7.5c2.6,0,5.1,1.4,6.4,3.6V74.7z M35.1,86.3v-44
			h2.4v38.3c0,0.3,0.2,0.6,0.6,0.6h33c0.3,0,0.6-0.2,0.6-0.6v-9.2h2.4v14.9c0,2.1-1.8,3.9-3.9,3.9H38.9
			C36.8,90.1,35.1,88.4,35.1,86.3z M46.3,35.4h-7.7v-3h15.7v38.5c0,0.3,0.2,0.6,0.6,0.6h15.6V80H38.6V42.3h7.7
			c0.3,0,0.6-0.2,0.6-0.6V36C46.9,35.6,46.6,35.4,46.3,35.4z M54.4,28.8h-4.7c-0.3,0-0.6,0.2-0.6,0.6c0,0.3,0.2,0.6,0.6,0.6h4.7v1.3
			H38.1c-1,0-0.4,1.5-0.6,4.2h-2.4v-5.1c0-2.1,1.8-3.9,3.9-3.9h15.4L54.4,28.8L54.4,28.8z M45.7,36.5v4.6H15.9v-4.6
			C29.3,36.5,39.9,36.5,45.7,36.5z M54.6,12c8.7,0,17,2.4,24.3,7H55c-0.3,0-0.6,0.2-0.6,0.6v5.7H38.9c-2.7,0-5,2.2-5,5v5.1
			c-5.1,0-14.8,0-19.1,0C22.9,21,38.1,12,54.6,12z M7.8,41.1v-4.6h6.1l0,0l0,0h0.9v4.6H7.8z M11.7,42.3c8,0,13.9,0,22.3,0V56
			c-0.6-0.2-1.2-0.5-1.8-0.6l-1.1-4.6c-0.1-0.2-0.3-0.5-0.6-0.5h-6.1c-0.3,0-0.5,0.2-0.6,0.5l-1.1,4.6c-1.1,0.4-2,0.8-3,1.2L16,54.1
			c-0.2-0.1-0.5-0.1-0.7,0.1l-4.3,4.3c-0.2,0.2-0.2,0.5-0.1,0.8l2.5,4c-0.5,0.9-0.9,1.9-1.2,3l-2.2,0.5c-0.6-2.9-0.9-6-0.9-9
			C9,52.4,9.9,47.2,11.7,42.3z M15.7,86.3L12,82.6l2.4-3.9c0.1-0.2,0.1-0.4,0-0.6c-0.6-1.1-1.1-2.2-1.4-3.3
			c-0.1-0.2-0.2-0.4-0.4-0.4l-4.4-1v-5.3l4.4-1c0.2-0.1,0.4-0.2,0.4-0.4c0.4-1.2,0.8-2.3,1.4-3.3c0.1-0.2,0.1-0.4,0-0.6L12.1,59
			l3.7-3.7l3.9,2.4c0.2,0.1,0.4,0.1,0.6,0c1-0.6,2.1-1.1,3.3-1.4c0.2-0.1,0.4-0.2,0.4-0.4l1-4.4h5.2l1,4.4c0.1,0.2,0.2,0.4,0.4,0.4
			c0.9,0.2,1.6,0.5,2.4,0.9V65c-1.6-1.8-4-2.9-6.4-2.9c-4.8,0-8.7,3.9-8.7,8.7s3.9,8.7,8.7,8.7c2.5,0,4.8-1.1,6.4-2.9v7.7
			c-0.8,0.4-1.6,0.7-2.4,0.9c-0.2,0.1-0.4,0.2-0.4,0.4l-1,4.4H25l-1-4.4c-0.1-0.2-0.2-0.4-0.4-0.4c-1.2-0.4-2.3-0.8-3.3-1.4
			c-0.2-0.1-0.4-0.1-0.6,0L15.7,86.3z M22.6,90.1c-1.3-1.3-2.6-2.8-3.9-4.3l1.2-0.8c0.9,0.5,1.9,0.9,3,1.2l0.9,3.9L22.6,90.1
			L22.6,90.1z M54.6,103.3c-11.6,0-22.5-4.3-30.8-12h61.6C77.2,98.7,66.4,103.3,54.6,103.3z M86.6,90.1H73.4
			c1.1-0.9,1.8-2.3,1.8-3.9V71.4h12c0.3,0,0.6-0.2,0.6-0.6V26.5c7.9,8.5,12.3,19.5,12.3,31.2C100.2,70.3,95,81.8,86.6,90.1z"/>
	</g>
	<g>
		<path d="M38.7,95.3h14c0.3,0,0.6-0.2,0.6-0.6c0-0.3-0.2-0.6-0.6-0.6h-14c-0.3,0-0.6,0.2-0.6,0.6S38.4,95.3,38.7,95.3z"/>
	</g>
	<g>
		<path d="M54.9,95.3h2.3c0.3,0,0.6-0.2,0.6-0.6c0-0.3-0.2-0.6-0.6-0.6h-2.3c-0.3,0-0.6,0.2-0.6,0.6S54.6,95.3,54.9,95.3z"/>
	</g>
	<g>
		<path d="M59.2,95.3h1.5c0.3,0,0.6-0.2,0.6-0.6c0-0.3-0.2-0.6-0.6-0.6h-1.5c-0.3,0-0.6,0.2-0.6,0.6S58.9,95.3,59.2,95.3z"/>
	</g>
	<g>
		<path d="M55.9,97.6c0,0.3,0.2,0.6,0.6,0.6h14c0.3,0,0.6-0.2,0.6-0.6c0-0.3-0.2-0.6-0.6-0.6h-14C56.2,97,55.9,97.2,55.9,97.6z"/>
	</g>
	<g>
		<path d="M51.4,97.6c0,0.3,0.2,0.6,0.6,0.6h2.3c0.3,0,0.6-0.2,0.6-0.6c0-0.3-0.2-0.6-0.6-0.6H52C51.6,97,51.4,97.2,51.4,97.6z"/>
	</g>
	<g>
		<path d="M50,97h-1.5c-0.3,0-0.6,0.2-0.6,0.6c0,0.3,0.2,0.6,0.6,0.6H50c0.3,0,0.6-0.2,0.6-0.6S50.3,97,50,97z"/>
	</g>
	<g>
		<path d="M54.6,88.7c1.9,0,3.4-1.5,3.4-3.4c0-1.9-1.5-3.4-3.4-3.4c-1.9,0-3.4,1.5-3.4,3.4C51.2,87.1,52.7,88.7,54.6,88.7z M54.6,83
			c1.2,0,2.2,1,2.2,2.2s-1,2.2-2.2,2.2s-2.2-1-2.2-2.2C52.4,84,53.4,83,54.6,83z"/>
	</g>
	<g>
		<path d="M71.1,34.6c2.5,0,4.6-2,4.6-4.6s-2-4.6-4.6-4.6c-2.5,0-4.6,2-4.6,4.6S68.6,34.6,71.1,34.6z M71.1,26.7
			c1.9,0,3.4,1.5,3.4,3.4s-1.5,3.4-3.4,3.4c-1.9,0-3.4-1.5-3.4-3.4S69.2,26.7,71.1,26.7z"/>
	</g>
	<g>
		<path d="M64,43.2h14.2c0.3,0,0.6-0.2,0.6-0.6c0-4.2-3.5-7.7-7.7-7.7c-4.2,0-7.7,3.5-7.7,7.7C63.4,42.9,63.7,43.2,64,43.2z
			 M71.1,36.1c3.4,0,6.2,2.6,6.5,5.9h-13C64.9,38.7,67.7,36.1,71.1,36.1z"/>
	</g>
	<g>
		<path d="M60.8,51.9h20.5c1.2,0,2.2-1,2.2-2.2c0-1.2-1-2.2-2.2-2.2H60.8c-1.2,0-2.2,1-2.2,2.2S59.6,51.9,60.8,51.9z M60.8,48.7
			h20.5c0.6,0,1.1,0.5,1.1,1.1c0,0.6-0.5,1.1-1.1,1.1H60.8c-0.6,0-1.1-0.5-1.1-1.1C59.8,49.2,60.3,48.7,60.8,48.7z"/>
	</g>
	<g>
		<path d="M60.8,58.2h20.5c1.2,0,2.2-1,2.2-2.2c0-1.2-1-2.2-2.2-2.2H60.8c-1.2,0-2.2,1-2.2,2.2C58.6,57.2,59.6,58.2,60.8,58.2z
			 M60.8,55h20.5c0.6,0,1.1,0.5,1.1,1.1c0,0.6-0.5,1.1-1.1,1.1H60.8c-0.6,0-1.1-0.5-1.1-1.1C59.8,55.4,60.3,55,60.8,55z"/>
	</g>
	<g>
		<path d="M74,59.9h-5.9c-1.4,0-2.5,1.1-2.5,2.5s1.1,2.5,2.5,2.5H74c1.4,0,2.5-1.1,2.5-2.5C76.5,61,75.4,59.9,74,59.9z M74,63.7
			h-5.9c-0.8,0-1.3-0.6-1.3-1.3c0-0.8,0.6-1.3,1.3-1.3H74c0.8,0,1.3,0.6,1.3,1.3C75.4,63.2,74.8,63.7,74,63.7z"/>
	</g>
</g>
</svg>
