<?xml version="1.0" encoding="utf-8"?>
<!-- Generator: Adobe Illustrator 27.6.1, SVG Export Plug-In . SVG Version: 6.00 Build 0)  -->
<svg version="1.1" id="Layer_1" xmlns="http://www.w3.org/2000/svg" xmlns:xlink="http://www.w3.org/1999/xlink" x="0px" y="0px"
	 viewBox="0 0 109 109" style="enable-background:new 0 0 109 109;" xml:space="preserve">
<g>
	<g>
		<path d="M101.3,57.4c0-20.8-14-39.3-34-45c-3.4-3.9-8.4-6.1-13.8-5.8c-0.1,0-0.1,0-0.1,0c-4.5,0.4-8.5,2.5-11.4,5.8
			C21.8,18,7.8,36.5,7.8,57.4c0,10.4,3.3,20.2,9.6,28.3c-0.2,0.5-0.4,1.1-0.4,1.6c0,2,1.6,3.6,3.6,3.6H22
			c8.8,8.4,20.3,13.1,32.5,13.1S78.3,99.4,87.1,91h1.4c2,0,3.6-1.6,3.6-3.6c0-0.5-0.1-1.1-0.4-1.6C97.9,77.5,101.3,67.8,101.3,57.4z
			 M53.3,7.8c0,0,0.1,0,0.1,0c9.3-0.7,16.7,6.7,16.7,15.6c0,3.4-1.1,6.7-3.2,9.4c-6.4,8.3-5.8,15.9-6.1,17.3H48.2
			c-0.1-0.2,0.5-9-5.9-17.2c-2.3-3-3.5-6.8-3.3-10.7C39.5,14.6,45.7,8.4,53.3,7.8z M60.9,62c-0.2,2.6-1.3,7.2-2,9.9
			c-0.3-1.1-0.7-2.7-1-4.3c-0.1-0.2-0.3-0.5-0.5-0.5l0,0c-0.3,0-0.5,0.2-0.5,0.5c-0.7,3.1-1.4,6.1-2.2,9.3c-0.8-3.1-1.6-6.2-2.2-9.3
			c-0.1-0.2-0.3-0.5-0.5-0.5l0,0c-0.2,0-0.5,0.2-0.5,0.4c-0.4,1.6-0.7,3.1-1,4.3c-0.7-2.7-1.7-7.3-2-9.9L60.9,62L60.9,62z
			 M46.9,60.8c-0.6,0-1-0.5-1-1v-0.2h17.3v0.2c0,0.6-0.5,1-1,1H46.9z M45.9,58.4v-1.7h17.3v1.7H45.9z M45.9,55.5v-1.7h17.3v1.7H45.9
			z M45.9,52.6v-0.2c0-0.6,0.5-1,1-1c9,0,4.2,0,2.5,0c1.1,0,4.6,0,12.7,0c0.6,0,1,0.5,1,1v0.2H45.9z M17.1,83.2
			C11.8,75.6,9,66.7,9,57.4C9,37.6,21.9,20,40.7,14c-1.6,2.3-2.6,5.2-2.8,8.2c-0.3,4.2,1,8.2,3.5,11.5C45,38.4,47,44.2,47,50
			c-1,0.3-4.1,1.4-6.7,3.8c-0.1,0.1-1.8,1.5-1.4,5.2L40,70.5c0.1,0.8,0.7,1.5,1.6,1.6c0.1,0,0.1,0,0.2,0c0.4,0,0.8-0.1,1.1-0.4
			c0.4-0.3,0.6-0.7,0.7-1.2l0.7-6.9c0.1-0.4,0.2-0.7,0.6-0.9c0.5-0.2,1.3-0.5,2.2-0.7c0.4,3.9,2.5,12,2.6,12.3
			c0.1,0.2,0.3,0.4,0.5,0.4c0.2,0,0.5-0.2,0.5-0.4c0,0,0.5-1.7,1-4c0,0.1,0,0.1,0,0.1c-0.5,4.6-2.1,14.8-7.5,16.3
			c-0.1-1.7-1.1-3.2-2.7-3.8c0.7-1,1.1-2.2,1.1-3.5c0-6.6-9.1-8.5-11.7-2.4c-2-1-4.6-0.2-5.6,1.9C21.9,76.3,16.9,78.8,17.1,83.2z
			 M44.5,53.7h0.2v1.7h-0.2c-0.3,0-0.6,0.2-0.6,0.6c0,0.3,0.2,0.6,0.6,0.6h0.2v1.7h-0.2c-0.3,0-0.6,0.2-0.6,0.6
			c0,0.3,0.2,0.6,0.6,0.6h0.2v0.2c0,0.5,0.2,1.1,0.5,1.4c-0.4,0.1-0.8,0.3-1,0.5c-0.7,0.4-1.1,1-1.2,1.8l-0.7,6.9
			c0,0.2-0.1,0.3-0.2,0.4C42,71,41.8,71.1,41.6,71c-0.3-0.1-0.5-0.2-0.5-0.5L39.9,59c-0.3-3.1,1-4.2,1.1-4.2
			c1.2-1.1,2.5-1.9,3.7-2.5c0,0.1,0,0.2,0,0.2v0.2h-0.2c-0.3,0-0.6,0.2-0.6,0.6C43.9,53.5,44.1,53.7,44.5,53.7z M54.6,103
			c-11.5,0-22.4-4.3-30.8-12h61.6C76.9,98.7,66,103,54.6,103z M90.4,85.8c0.4,0.4,0.5,1,0.5,1.6c0,1.4-1.1,2.5-2.5,2.5h-1.7l0,0
			H22.3l0,0h-1.7c-1.4,0-2.5-1.1-2.5-2.5c0-0.5,0.2-1.1,0.5-1.6c0.2-0.2,0.2-0.5,0.1-0.7c-2.5-4.1,3.1-8.4,6.4-4.8
			c0.3,0.4,0.9,0.2,1-0.2c0.3-1.4,1.5-2.3,2.9-2.3c1.6,0,1.7,0.9,2.3,0.7c0.2-0.1,0.3-0.2,0.4-0.4c1.6-5.5,9.8-4.3,9.8,1.4
			c0,2.7-1.8,3.3-1.5,4c0.1,0.2,0.2,0.4,0.5,0.4c1.6,0.2,2.9,1.7,2.6,3.5c-0.1,0.4,0.2,0.7,0.7,0.7c5.5-0.7,7.8-8.2,8.8-14.3
			c0.4,1.9,1,3.9,1.4,5.7c0.1,0.2,0.3,0.4,0.5,0.4c0.6,0,0.5-0.2,1.9-5.5c0.7,5.1,2.6,12.5,8.9,13.7c0.2,0.1,0.4,0,0.5-0.2
			c0.3-0.3,0.1-0.5,0.1-1c0-1.5,1.1-2.8,2.6-2.9c0.5-0.1,0.7-0.6,0.4-1c-0.9-0.9-1.4-2.2-1.4-3.4c0-2.8,2.2-5,5-5
			c2.2,0,4.2,1.5,4.8,3.6c0.1,0.4,0.6,0.5,0.9,0.3c1.7-1.3,4.3-0.5,4.8,1.7c0.1,0.5,0.7,0.6,1,0.2c2.5-2.7,7-1,7,2.7
			c0,0.8-0.2,1.5-0.6,2.1C90.2,85.3,90.2,85.6,90.4,85.8z M83.7,78.9c-1-2.1-3.6-2.9-5.6-1.9c-1-2.2-3.2-3.7-5.7-3.7
			c-3.4,0-6.1,2.8-6.1,6.1c0,1.3,0.4,2.5,1.1,3.5c-1.6,0.6-2.6,2-2.7,3.7c-4.5-1.3-6.9-6.4-7.5-15.8c0.1-0.1,0.1-0.3,0.1-0.4
			c0.5,2.2,1,3.9,1,4c0.1,0.2,0.3,0.4,0.5,0.4c0.2,0,0.5-0.2,0.5-0.4C59.5,74,61.7,66,62,62c1,0.1,1.8,0.4,2.2,0.7
			c0.3,0.2,0.5,0.5,0.6,0.9l0.7,6.9c0.1,0.5,0.3,0.9,0.7,1.2c0.3,0.2,0.7,0.4,1.1,0.4c0.1,0,0.1,0,0.2,0c0.8-0.1,1.5-0.8,1.6-1.6
			L70.2,59c0.4-3.7-1.4-5.2-1.4-5.2c-2.6-2.4-5.8-3.5-6.7-3.8c0.1-5.8,2-11.6,5.8-16.5c2.2-2.9,3.4-6.4,3.4-10.1
			c0-3.4-1-6.6-2.9-9.4C87.1,20,100,37.7,100,57.5c0,9.3-2.8,18.2-8.1,25.8C92.2,78.8,87.2,76.3,83.7,78.9z M64.6,58.4h-0.2v-1.7
			h0.2c0.3,0,0.6-0.2,0.6-0.6c0-0.3-0.2-0.6-0.6-0.6h-0.2v-1.7h0.2c0.3,0,0.6-0.2,0.6-0.6c0-0.3-0.2-0.6-0.6-0.6h-0.2v-0.2
			c0-0.1,0-0.2,0-0.2c1.1,0.6,2.5,1.4,3.7,2.5c0.1,0.1,1.3,1.2,1,4.2L68,70.3c0,0.3-0.2,0.5-0.5,0.5c-0.2,0-0.3,0-0.5-0.1
			c-0.1-0.1-0.2-0.2-0.2-0.4L66,63.4c-0.1-0.8-0.5-1.4-1.2-1.8c-0.2-0.1-0.6-0.3-1-0.5c0.4-0.4,0.5-0.9,0.5-1.4v-0.1h0.2
			c0.3,0,0.6-0.2,0.6-0.6C65.2,58.7,65,58.4,64.6,58.4z"/>
	</g>
	<g>
		<path d="M38.7,95h14c0.3,0,0.6-0.2,0.6-0.6c0-0.3-0.2-0.6-0.6-0.6h-14c-0.3,0-0.6,0.2-0.6,0.6C38.1,94.8,38.4,95,38.7,95z"/>
	</g>
	<g>
		<path d="M54.9,95h2.3c0.3,0,0.6-0.2,0.6-0.6c0-0.3-0.2-0.6-0.6-0.6h-2.3c-0.3,0-0.6,0.2-0.6,0.6C54.3,94.8,54.6,95,54.9,95z"/>
	</g>
	<g>
		<path d="M59.1,95h1.5c0.3,0,0.6-0.2,0.6-0.6c0-0.3-0.2-0.6-0.6-0.6h-1.5c-0.3,0-0.6,0.2-0.6,0.6C58.6,94.8,58.8,95,59.1,95z"/>
	</g>
	<g>
		<path d="M55.9,97.3c0,0.3,0.2,0.6,0.6,0.6h14c0.3,0,0.6-0.2,0.6-0.6c0-0.3-0.2-0.6-0.6-0.6h-14C56.1,96.7,55.9,97,55.9,97.3z"/>
	</g>
	<g>
		<path d="M51.4,97.3c0,0.3,0.2,0.6,0.6,0.6h2.3c0.3,0,0.6-0.2,0.6-0.6c0-0.3-0.2-0.6-0.6-0.6H52C51.6,96.7,51.4,97,51.4,97.3z"/>
	</g>
	<g>
		<path d="M50,96.7h-1.5c-0.3,0-0.6,0.2-0.6,0.6c0,0.3,0.2,0.6,0.6,0.6H50c0.3,0,0.6-0.2,0.6-0.6C50.5,97,50.3,96.7,50,96.7z"/>
	</g>
	<g>
		<path d="M54.6,32.2c5.1,0,9.1-4.1,9.1-9.1s-4.1-9.1-9.1-9.1S45.4,18,45.4,23S49.5,32.2,54.6,32.2z M54.6,15.1c4.4,0,8,3.6,8,8
			s-3.6,8-8,8s-8-3.6-8-8C46.5,18.6,50.2,15.1,54.6,15.1z"/>
	</g>
	<g>
		<path d="M54.5,29.3c3.3,0,6.3-2.5,6.3-6.2c0-5.2-6.3-8.6-10.6-4.3C45.8,23,49.4,29.3,54.5,29.3z M54.7,17.9c2.4,0,4.9,2.2,4.9,5.1
			c0,4.6-5.6,6.8-8.7,3.5C47.3,22.7,50.9,17.9,54.7,17.9z"/>
	</g>
	<g>
		<path d="M75.6,41.6c4.7,0,9.1,4.4,9.1,9.1c0,0.3,0.2,0.6,0.6,0.6c0.3,0,0.6-0.2,0.6-0.6c0-4.7,4.4-9.1,9.1-9.1
			c0.3,0,0.6-0.2,0.6-0.6c0-0.3-0.2-0.6-0.6-0.6c-4.7,0-9.1-4.4-9.1-9.1c0-0.3-0.2-0.6-0.6-0.6c-0.3,0-0.6,0.2-0.6,0.6
			c0,4.7-4.4,9.1-9.1,9.1c-0.3,0-0.6,0.2-0.6,0.6C75,41.4,75.3,41.6,75.6,41.6z M85.3,34.6c1.1,2.9,3.6,5.4,6.5,6.5
			c-2.9,1.1-5.4,3.6-6.5,6.5c-1.1-2.9-3.6-5.4-6.5-6.5C81.8,40,84.2,37.5,85.3,34.6z"/>
	</g>
	<g>
		<path d="M21.7,60.4c0,0.3,0.2,0.6,0.6,0.6c0.4,0,0.6-0.2,0.6-0.6c0-4.7,4.4-9.1,9.1-9.1c0.3,0,0.6-0.2,0.6-0.6
			c0-0.3-0.2-0.6-0.6-0.6c-4.7,0-9.1-4.4-9.1-9.1c0-0.3-0.2-0.6-0.6-0.6c-0.4,0-0.6,0.2-0.6,0.6c0,4.7-4.4,9.1-9.1,9.1
			c-0.3,0-0.6,0.2-0.6,0.6c0,0.3,0.2,0.6,0.6,0.6C17.3,51.3,21.7,55.8,21.7,60.4z M22.3,44.3c1.1,2.9,3.6,5.4,6.5,6.5
			c-2.9,1.1-5.4,3.6-6.5,6.5c-1.1-2.9-3.6-5.4-6.5-6.5C18.8,49.7,21.3,47.2,22.3,44.3z"/>
	</g>
</g>
</svg>
