<?xml version="1.0" encoding="utf-8"?>
<!-- Generator: Adobe Illustrator 27.6.1, SVG Export Plug-In . SVG Version: 6.00 Build 0)  -->
<svg version="1.1" id="Layer_1" xmlns="http://www.w3.org/2000/svg" xmlns:xlink="http://www.w3.org/1999/xlink" x="0px" y="0px"
	 viewBox="0 0 109 109" style="enable-background:new 0 0 109 109;" xml:space="preserve">
<g>
	<g>
		<path d="M53.5,94.9c0-0.3-0.2-0.6-0.6-0.6h-14c-0.3,0-0.6,0.2-0.6,0.6c0,0.3,0.2,0.6,0.6,0.6h14C53.3,95.5,53.5,95.2,53.5,94.9z"
			/>
	</g>
	<g>
		<path d="M58.1,94.9c0-0.3-0.2-0.6-0.6-0.6h-2.3c-0.3,0-0.6,0.2-0.6,0.6c0,0.3,0.2,0.6,0.6,0.6h2.3C57.8,95.5,58.1,95.2,58.1,94.9z
			"/>
	</g>
	<g>
		<path d="M59.5,95.5H61c0.3,0,0.6-0.2,0.6-0.6c0-0.3-0.2-0.6-0.6-0.6h-1.5c-0.3,0-0.6,0.2-0.6,0.6C58.9,95.2,59.2,95.5,59.5,95.5z"
			/>
	</g>
	<g>
		<path d="M70.8,97.1h-14c-0.3,0-0.6,0.2-0.6,0.6c0,0.3,0.2,0.6,0.6,0.6h14c0.3,0,0.6-0.2,0.6-0.6C71.3,97.4,71.1,97.1,70.8,97.1z"
			/>
	</g>
	<g>
		<path d="M54.5,97.1h-2.3c-0.3,0-0.6,0.2-0.6,0.6c0,0.3,0.2,0.6,0.6,0.6h2.3c0.3,0,0.6-0.2,0.6-0.6C55.1,97.4,54.8,97.1,54.5,97.1z
			"/>
	</g>
	<g>
		<path d="M50.3,97.1h-1.5c-0.3,0-0.6,0.2-0.6,0.6c0,0.3,0.2,0.6,0.6,0.6h1.5c0.3,0,0.6-0.2,0.6-0.6C50.8,97.4,50.6,97.1,50.3,97.1z
			"/>
	</g>
	<g>
		<path d="M27.3,17.1c-1.1,0-2,0.9-2,2c0,1.1,0.9,2,2,2c1.1,0,2-0.9,2-2C29.4,18,28.4,17.1,27.3,17.1z M27.3,20
			c-0.5,0-0.8-0.4-0.8-0.8c0-0.5,0.4-0.8,0.8-0.8c0.5,0,0.8,0.4,0.8,0.8C28.2,19.7,27.8,20,27.3,20z"/>
	</g>
	<g>
		<path d="M32,17.1c-1.1,0-2,0.9-2,2c0,1.1,0.9,2,2,2c1.1,0,2-0.9,2-2C34.1,18,33.1,17.1,32,17.1z M32,20c-0.5,0-0.8-0.4-0.8-0.8
			c0-0.5,0.4-0.8,0.8-0.8s0.8,0.4,0.8,0.8C32.9,19.7,32.5,20,32,20z"/>
	</g>
	<g>
		<path d="M36.7,17.1c-1.1,0-2,0.9-2,2c0,1.1,0.9,2,2,2c1.1,0,2-0.9,2-2C38.8,18,37.8,17.1,36.7,17.1z M36.7,20
			c-0.5,0-0.8-0.4-0.8-0.8c0-0.5,0.4-0.8,0.8-0.8s0.8,0.4,0.8,0.8C37.6,19.7,37.2,20,36.7,20z"/>
	</g>
	<g>
		<path d="M25.2,28.8h8.3c0.3,0,0.6-0.2,0.6-0.6c0-0.3-0.2-0.6-0.6-0.6h-8.3c-0.3,0-0.6,0.2-0.6,0.6C24.7,28.6,24.9,28.8,25.2,28.8z
			"/>
	</g>
	<g>
		<path d="M40,31.3h-8.3c-0.3,0-0.6,0.2-0.6,0.6c0,0.3,0.2,0.6,0.6,0.6H40c0.3,0,0.6-0.2,0.6-0.6C40.6,31.5,40.3,31.3,40,31.3z"/>
	</g>
	<g>
		<path d="M43.1,32.4h8.3c0.3,0,0.6-0.2,0.6-0.6c0-0.3-0.2-0.6-0.6-0.6h-8.3c-0.3,0-0.6,0.2-0.6,0.6C42.5,32.2,42.8,32.4,43.1,32.4z
			"/>
	</g>
	<g>
		<path d="M66.1,31.3H54.4c-0.3,0-0.6,0.2-0.6,0.6c0,0.3,0.2,0.6,0.6,0.6h11.7c0.3,0,0.6-0.2,0.6-0.6C66.7,31.5,66.4,31.3,66.1,31.3
			z"/>
	</g>
	<g>
		<path d="M40,34.9h-8.3c-0.3,0-0.6,0.2-0.6,0.6c0,0.3,0.2,0.6,0.6,0.6H40c0.3,0,0.6-0.2,0.6-0.6C40.6,35.1,40.3,34.9,40,34.9z"/>
	</g>
	<g>
		<path d="M42.5,36.1h4.7c0.3,0,0.6-0.2,0.6-0.6c0-0.3-0.2-0.6-0.6-0.6h-4.8c-0.3,0-0.6,0.2-0.6,0.6C41.9,35.8,42.1,36.1,42.5,36.1z
			"/>
	</g>
	<g>
		<path d="M66.1,34.9H49.8c-0.3,0-0.6,0.2-0.6,0.6c0,0.3,0.2,0.6,0.6,0.6h16.3c0.3,0,0.6-0.2,0.6-0.6S66.4,34.9,66.1,34.9z"/>
	</g>
	<g>
		<path d="M25.2,40.2h8.3c0.3,0,0.6-0.2,0.6-0.6c0-0.3-0.2-0.6-0.6-0.6h-8.3c-0.3,0-0.6,0.2-0.6,0.6C24.7,40,24.9,40.2,25.2,40.2z"
			/>
	</g>
	<g>
		<path d="M40,42.7h-8.3c-0.3,0-0.6,0.2-0.6,0.6c0,0.3,0.2,0.6,0.6,0.6H40c0.3,0,0.6-0.2,0.6-0.6C40.6,42.9,40.3,42.7,40,42.7z"/>
	</g>
	<g>
		<path d="M42.5,43.2c0,0.3,0.2,0.6,0.6,0.6h8.3c0.3,0,0.6-0.2,0.6-0.6c0-0.3-0.2-0.6-0.6-0.6h-8.3C42.8,42.7,42.5,42.9,42.5,43.2z"
			/>
	</g>
	<g>
		<path d="M66.1,42.7H54.4c-0.3,0-0.6,0.2-0.6,0.6c0,0.3,0.2,0.6,0.6,0.6h11.7c0.3,0,0.6-0.2,0.6-0.6S66.4,42.7,66.1,42.7z"/>
	</g>
	<g>
		<path d="M40,46.3h-8.3c-0.3,0-0.6,0.2-0.6,0.6c0,0.3,0.2,0.6,0.6,0.6H40c0.3,0,0.6-0.2,0.6-0.6C40.6,46.5,40.3,46.3,40,46.3z"/>
	</g>
	<g>
		<path d="M42.5,47.4h4.7c0.3,0,0.6-0.2,0.6-0.6c0-0.3-0.2-0.6-0.6-0.6h-4.8c-0.3,0-0.6,0.2-0.6,0.6C41.9,47.2,42.1,47.4,42.5,47.4z
			"/>
	</g>
	<g>
		<path d="M66.1,46.3H49.8c-0.3,0-0.6,0.2-0.6,0.6c0,0.3,0.2,0.6,0.6,0.6h16.3c0.3,0,0.6-0.2,0.6-0.6S66.4,46.3,66.1,46.3z"/>
	</g>
	<g>
		<path d="M25.2,51.6h8.3c0.3,0,0.6-0.2,0.6-0.6c0-0.3-0.2-0.6-0.6-0.6h-8.3c-0.3,0-0.6,0.2-0.6,0.6C24.7,51.3,24.9,51.6,25.2,51.6z
			"/>
	</g>
	<g>
		<path d="M40,54h-8.3c-0.3,0-0.6,0.2-0.6,0.6c0,0.3,0.2,0.6,0.6,0.6H40c0.3,0,0.6-0.2,0.6-0.6C40.6,54.3,40.3,54,40,54z"/>
	</g>
	<g>
		<path d="M42.5,54.6c0,0.3,0.2,0.6,0.6,0.6h8.3c0.3,0,0.6-0.2,0.6-0.6c0-0.3-0.2-0.6-0.6-0.6h-8.3C42.8,54,42.5,54.3,42.5,54.6z"/>
	</g>
	<g>
		<path d="M66.1,54H54.4c-0.3,0-0.6,0.2-0.6,0.6c0,0.3,0.2,0.6,0.6,0.6h11.7c0.3,0,0.6-0.2,0.6-0.6C66.7,54.3,66.4,54,66.1,54z"/>
	</g>
	<g>
		<path d="M40,57.6h-8.3c-0.3,0-0.6,0.2-0.6,0.6c0,0.3,0.2,0.6,0.6,0.6H40c0.3,0,0.6-0.2,0.6-0.6C40.6,57.9,40.3,57.6,40,57.6z"/>
	</g>
	<g>
		<path d="M42.5,58.8h4.7c0.3,0,0.6-0.2,0.6-0.6c0-0.3-0.2-0.6-0.6-0.6h-4.8c-0.3,0-0.6,0.2-0.6,0.6C41.9,58.5,42.1,58.8,42.5,58.8z
			"/>
	</g>
	<g>
		<path d="M58,57.6h-8.1c-0.3,0-0.6,0.2-0.6,0.6c0,0.3,0.2,0.6,0.6,0.6H58c0.3,0,0.6-0.2,0.6-0.6C58.6,57.9,58.3,57.6,58,57.6z"/>
	</g>
	<g>
		<path d="M34.1,62.4c0-0.3-0.2-0.6-0.6-0.6h-8.3c-0.3,0-0.6,0.2-0.6,0.6c0,0.3,0.2,0.6,0.6,0.6h8.3C33.8,62.9,34.1,62.7,34.1,62.4z
			"/>
	</g>
	<g>
		<path d="M40,65.4h-8.3c-0.3,0-0.6,0.2-0.6,0.6c0,0.3,0.2,0.6,0.6,0.6H40c0.3,0,0.6-0.2,0.6-0.6C40.6,65.6,40.3,65.4,40,65.4z"/>
	</g>
	<g>
		<path d="M51.3,65.4h-8.3c-0.3,0-0.6,0.2-0.6,0.6c0,0.3,0.2,0.6,0.6,0.6h8.3c0.3,0,0.6-0.2,0.6-0.6S51.6,65.4,51.3,65.4z"/>
	</g>
	<g>
		<path d="M40,69h-8.3c-0.3,0-0.6,0.2-0.6,0.6c0,0.3,0.2,0.6,0.6,0.6H40c0.3,0,0.6-0.2,0.6-0.6C40.6,69.3,40.3,69,40,69z"/>
	</g>
	<g>
		<path d="M47.2,69h-4.8c-0.3,0-0.6,0.2-0.6,0.6c0,0.3,0.2,0.6,0.6,0.6h4.8c0.3,0,0.6-0.2,0.6-0.6C47.8,69.3,47.5,69,47.2,69z"/>
	</g>
	<g>
		<path d="M69.7,65.3c-4.8,0-8.6,3.9-8.6,8.6s3.9,8.6,8.6,8.6c4.8,0,8.6-3.9,8.6-8.6C78.3,69.2,74.4,65.3,69.7,65.3z M69.7,81.4
			c-4.1,0-7.5-3.3-7.5-7.5c0-4.2,3.3-7.5,7.5-7.5c4.1,0,7.5,3.3,7.5,7.5C77.1,78,73.8,81.4,69.7,81.4z"/>
	</g>
	<g>
		<rect x="67.6" y="72.7" width="4.3" height="0.8"/>
	</g>
	<g>
		<rect x="67.6" y="74.3" width="4.3" height="0.8"/>
	</g>
	<g>
		<path d="M65.1,71.2V73c0,0.2-0.1,0.3-0.1,0.4c-0.1,0.1-0.2,0.1-0.3,0.1h-0.2v0.8h0.2c0.1,0,0.2,0.1,0.3,0.1
			c0.1,0.1,0.1,0.2,0.1,0.4v1.8c0,0.7,0.4,1.1,1.1,1.1h0.3V77c-0.2,0-0.4,0-0.5-0.1C66,76.8,66,76.7,66,76.6v-2
			c0-0.4-0.2-0.6-0.5-0.7c0.4-0.1,0.5-0.3,0.5-0.7v-1.8c0-0.3,0.2-0.5,0.5-0.5h0.1v-0.8h-0.3C65.6,70.1,65.1,70.5,65.1,71.2z"/>
	</g>
	<g>
		<path d="M74.3,73.3c-0.1-0.1-0.1-0.2-0.1-0.4v-1.7c0-0.7-0.4-1.1-1.1-1.1h-0.3v0.8h0.2l0,0c0.1,0,0.2,0.1,0.3,0.1s0.1,0.2,0.1,0.4
			v1.8c0,0.4,0.2,0.6,0.5,0.7c-0.4,0.1-0.5,0.3-0.5,0.7v2c0,0.1-0.1,0.2-0.1,0.3s-0.2,0.1-0.5,0.1v0.8H73c0.8,0,1.1-0.4,1.1-1.1
			v-1.8c0-0.2,0.1-0.3,0.1-0.4c0.1-0.1,0.2-0.1,0.3-0.1h0.2v-0.8h-0.2C74.5,73.5,74.4,73.5,74.3,73.3z"/>
	</g>
	<g>
		<path d="M105.5,37.8L105.5,37.8l-5.2-7.6l0,0c-0.1-0.1-0.3-0.2-0.5-0.2h-7.2c-8.8-12-22.9-19.1-37.7-19.1
			c-6.8,0-13.3,1.4-19.5,4.2h-10c-2.4,0-4.4,2-4.4,4.4v5.8C12.7,34,8,45.5,8,57.7c0,25.7,21,46.8,46.8,46.8
			c25.8,0,46.8-21,46.8-46.8c0-4.2-0.5-8.3-1.6-12.4l5.4-6.8C105.7,38.3,105.7,38,105.5,37.8z M79,31.5l4.1,6h-8.2L79,31.5z
			 M98.8,31.1l-4.1,6l-4.1-6C92.4,31.1,96.1,31.1,98.8,31.1z M93.5,37.6h-8.3l4.1-6L93.5,37.6z M84.2,37.1l-4.1-6h8.3L84.2,37.1z
			 M83.8,38.8l4.4,16.4L75,38.8C75,38.8,83.8,38.8,83.8,38.8z M85,38.8h8.9l-4.5,16.7L85,38.8z M99.8,31.5l4.1,6h-8.3L99.8,31.5z
			 M66.5,16.3L66.5,16.3c0.2,0.1,0.4,0.1,0.7,0.2l0,0c0.1,0,0.1,0.1,0.1,0.1c1.1,0.5,1.9,1.6,1.9,3v2.7H22.2v-2.7
			c0-1.8,1.4-3.3,3.3-3.3h40.4c0.1,0,0.2,0,0.3,0C66.3,16.2,66.3,16.3,66.5,16.3z M81.2,67.7c0.4,0.8,0.7,1.6,1,2.3
			c0.1,0.2,0.2,0.4,0.4,0.4l3.4,1v4.8l-3.4,1c-0.2,0.1-0.4,0.2-0.4,0.4c-0.2,0.8-0.6,1.6-1,2.3c-0.1,0.2-0.1,0.4,0,0.5l1.7,3.1
			l-3.4,3.4l-3.1-1.7c-0.2-0.1-0.4-0.1-0.5,0c-0.7,0.4-1.6,0.7-2.3,1c-0.2,0.1-0.4,0.2-0.4,0.4l-1,3.4h-4.8l-1-3.4
			c-0.1-0.2-0.2-0.4-0.4-0.4c-0.8-0.2-1.6-0.6-2.3-1c-0.2-0.1-0.4-0.1-0.5,0L60,87.1l-3.4-3.4l1.7-3.1c0.1-0.2,0.1-0.4,0-0.5
			c-0.4-0.8-0.7-1.6-1-2.3c-0.1-0.2-0.2-0.4-0.4-0.4l-3.4-1v-4.8l3.4-1c0.2-0.1,0.4-0.2,0.4-0.4c0.2-0.8,0.6-1.6,1-2.3
			c0.1-0.2,0.1-0.4,0-0.5l-1.7-3.1l3.3-3.4l3.1,1.7c0.2,0.1,0.4,0.1,0.5,0c0.8-0.4,1.6-0.7,2.3-1c0.2-0.1,0.4-0.2,0.4-0.4l1-3.4h2.4
			l0,0l0,0H72l1,3.4c0.1,0.2,0.2,0.4,0.4,0.4c0.8,0.2,1.6,0.6,2.3,1c0.2,0.1,0.4,0.1,0.5,0l3.1-1.7l3.4,3.4l-1.7,3.1
			C81.1,67.4,81.1,67.6,81.2,67.7z M66.8,56.5c-0.2,0-0.5,0.2-0.5,0.4l-1,3.5c-0.7,0.2-1.4,0.5-2,0.8L60,59.5
			c-0.2-0.1-0.5-0.1-0.7,0.1l-4,4c-0.2,0.2-0.2,0.5-0.1,0.7l1.7,3.2c-0.3,0.7-0.6,1.3-0.8,2l-3.5,1c-0.2,0.1-0.4,0.3-0.4,0.5v5.7
			c0,0.2,0.2,0.5,0.4,0.5l3.5,1c0.2,0.7,0.5,1.4,0.8,2l-1.3,2.3H25.4c-1.8,0-3.3-1.4-3.3-3.3v-56h46.9v33.2H66.8z M9.2,57.7
			C9.2,46.2,13.4,35.4,21,27v52.4c0,2.4,2,4.4,4.4,4.4h29.7c0,0.2,0.1,0.3,0.2,0.4l4,4c0.2,0.2,0.5,0.2,0.7,0.1l3.2-1.7
			c0.7,0.3,1.3,0.6,2,0.8l0.8,2.8H22.8C14.4,81.9,9.2,70.4,9.2,57.7z M24,91.4h42.8h5.7h13.2c-8.1,7.5-19,12.1-30.8,12.1
			C43,103.4,32.1,98.8,24,91.4z M100.6,57.7c0,12.7-5.2,24.2-13.6,32.5H73.3l0.8-2.8c0.7-0.2,1.4-0.5,2-0.8l3.2,1.7
			c0.2,0.1,0.5,0.1,0.7-0.1l4-4c0.2-0.2,0.2-0.5,0.1-0.7l-1.7-3.2c0.3-0.7,0.6-1.3,0.8-2l3.5-1c0.2-0.1,0.4-0.3,0.4-0.5v-5.7
			c0-0.2-0.2-0.5-0.4-0.5l-3.5-1c-0.2-0.7-0.5-1.4-0.8-2l1.7-3.2c0.1-0.2,0.1-0.5-0.1-0.7l-4-4c-0.2-0.2-0.5-0.2-0.7-0.1l-3.2,1.7
			c-0.7-0.3-1.3-0.6-2-0.8l-1-3.5c-0.1-0.2-0.3-0.4-0.5-0.4h-2.3V19.4c0-1.9-1.3-3.6-3-4.2c-0.1,0-0.1-0.1-0.1-0.1s-0.1,0-0.1-0.1
			c-0.1,0-0.2-0.1-0.3-0.1c-0.1,0-0.1,0-0.2,0c-0.1,0-0.2-0.1-0.3-0.1c-0.1,0-0.3,0-0.4,0H38.4c5.2-2,10.8-3.1,16.4-3.1
			c14.2,0,27.7,6.7,36.3,18c-3.1,0-9,0-12.2,0c-0.2,0-0.4,0.1-0.5,0.2l0,0l-5.1,7.7l0,0c-0.2,0.2-0.2,0.5,0,0.7L88.9,58l0,0
			c0.2,0.3,0.7,0.2,0.8,0l9.3-11.6C100.1,50.1,100.6,53.9,100.6,57.7z M90.7,55.2l4.4-16.4h8.7L90.7,55.2z"/>
	</g>
</g>
</svg>
